<svg width="46" height="29" viewBox="0 0 46 29" fill="none" xmlns="http://www.w3.org/2000/svg">
<path d="M0.00897333 14.4998C-0.116743 20.5419 4.08306 26.3079 9.86032 28.1884C15.3021 30 21.9929 28.6447 25.614 24.0268C28.2578 20.791 28.8586 16.4773 28.5724 12.4472C23.9121 12.4059 19.2518 12.4196 14.5984 12.4265C14.5908 14.0716 14.5984 15.7105 14.6053 17.3556C17.3957 17.432 20.1867 17.3969 22.9771 17.4526C22.2727 19.8445 20.6681 22.0706 18.2328 22.9344C13.5307 24.9877 7.53109 22.3053 6.05156 17.4176C4.26563 12.737 7.18932 7.08869 12.0164 5.72716C15.0096 4.68363 18.0931 5.85861 20.6542 7.40043C21.9518 6.19728 23.166 4.91149 24.3587 3.61193C21.4489 1.19936 17.7097 -0.279864 13.8655 0.045026C6.32321 0.133917 -0.277205 7.0336 0.00897333 14.4998Z" fill="#DC4E41"/>
<path d="M37.6422 8.27759C37.6283 9.65352 37.6138 11.0363 37.6068 12.4116C36.2113 12.4254 34.8234 12.4323 33.4348 12.4392C33.4348 13.8151 33.4348 15.1835 33.4348 16.5595C34.8234 16.5663 36.2189 16.5732 37.6068 16.5876C37.6207 17.9636 37.6207 19.3389 37.6346 20.7217C39.0162 20.7217 40.4048 20.7148 41.7927 20.7217C41.8003 19.3389 41.8066 17.9636 41.8212 16.5807C43.2091 16.5739 44.6046 16.567 45.9932 16.5601C45.9932 15.1842 45.9932 13.8157 45.9932 12.4398C44.6052 12.4329 43.2097 12.426 41.8212 12.4123C41.8136 11.0363 41.8003 9.65352 41.7927 8.27821C40.4048 8.27759 39.0232 8.27759 37.6422 8.27759Z" fill="#DC4E41"/>
<path d="M0.00897415 14.5C-0.277204 7.03374 6.32258 0.134055 13.8649 0.0445377C17.7091 -0.280352 21.4489 1.19887 24.3581 3.61144C23.1648 4.91163 21.9505 6.19679 20.6536 7.39995C18.0925 5.85813 15.009 4.68314 12.0158 5.72667C7.18806 7.08883 4.26437 12.7372 6.05093 17.4171C7.53046 22.3048 13.5301 24.9872 18.2321 22.9339C20.6669 22.0701 22.2721 19.844 22.9765 17.4521C20.1861 17.397 17.3951 17.4315 14.6047 17.3551C14.5977 15.71 14.5908 14.0711 14.5977 12.426C19.2511 12.4192 23.9115 12.4054 28.5718 12.4467C28.858 16.4775 28.2578 20.7912 25.6134 24.0263C21.9922 28.6442 15.3021 29.9995 9.85969 28.1879C4.08369 26.308 -0.116742 20.542 0.00897415 14.5Z" fill="#DC4E41"/>
<path d="M37.6416 8.27759C39.0232 8.27759 40.4042 8.27759 41.7921 8.27759C41.7997 9.65352 41.813 11.0363 41.8205 12.4116C43.2085 12.4254 44.604 12.4323 45.9925 12.4392C45.9925 13.8151 45.9925 15.1835 45.9925 16.5595C44.6046 16.5663 43.2091 16.5732 41.8205 16.5801C41.8066 17.9629 41.7997 19.3382 41.7921 20.7211C40.4042 20.7142 39.015 20.7211 37.634 20.7211C37.6207 19.3382 37.6207 17.9629 37.6062 16.587C36.2183 16.5726 34.8228 16.5663 33.4342 16.5588C33.4342 15.1829 33.4342 13.8145 33.4342 12.4386C34.8228 12.4317 36.2113 12.4248 37.6062 12.411C37.6132 11.0363 37.6271 9.65352 37.6416 8.27759Z" fill="#DC4E41"/>
</svg>
